<mxfile host="app.diagrams.net" modified="2023-07-31T14:55:08.470Z" agent="Mozilla/5.0 (X11; Linux x86_64; rv:102.0) Gecko/20100101 Firefox/102.0" etag="hKC99drhJ4x6bY93jFGH" version="21.6.6" type="device">
  <diagram name="Page-1" id="b520641d-4fe3-3701-9064-5fc419738815">
    <mxGraphModel dx="2049" dy="1206" grid="1" gridSize="10" guides="1" tooltips="1" connect="1" arrows="1" fold="1" page="1" pageScale="1" pageWidth="1100" pageHeight="850" background="none" math="0" shadow="0">
      <root>
        <mxCell id="0" />
        <mxCell id="1" parent="0" />
        <mxCell id="21ea969265ad0168-6" value="SGalil stages" style="swimlane;html=1;fontStyle=0;childLayout=stackLayout;horizontal=1;startSize=26;fillColor=#e0e0e0;horizontalStack=0;resizeParent=1;resizeLast=0;collapsible=1;marginBottom=0;swimlaneFillColor=#ffffff;align=center;rounded=1;shadow=0;comic=0;labelBackgroundColor=none;strokeWidth=1;fontFamily=Verdana;fontSize=12" parent="1" vertex="1">
          <mxGeometry x="12.5" y="24" width="160" height="110" as="geometry" />
        </mxCell>
        <mxCell id="21ea969265ad0168-7" value="grid fly scan (2D), TTL signal at the beginning of each line" style="text;html=1;strokeColor=none;fillColor=none;spacingLeft=4;spacingRight=4;whiteSpace=wrap;overflow=hidden;rotatable=0;points=[[0,0.5],[1,0.5]];portConstraint=eastwest;" parent="21ea969265ad0168-6" vertex="1">
          <mxGeometry y="26" width="160" height="54" as="geometry" />
        </mxCell>
        <mxCell id="21ea969265ad0168-14" value="DelayGenerator 4 - ddg4" style="swimlane;html=1;fontStyle=0;childLayout=stackLayout;horizontal=1;startSize=26;fillColor=#e0e0e0;horizontalStack=0;resizeParent=1;resizeLast=0;collapsible=1;marginBottom=0;swimlaneFillColor=#ffffff;align=center;rounded=1;shadow=0;comic=0;labelBackgroundColor=none;strokeWidth=1;fontFamily=Verdana;fontSize=12" parent="1" vertex="1">
          <mxGeometry x="270" y="40" width="160" height="160" as="geometry" />
        </mxCell>
        <mxCell id="21ea969265ad0168-15" value="ext. trigger" style="text;html=1;strokeColor=none;fillColor=none;spacingLeft=4;spacingRight=4;whiteSpace=wrap;overflow=hidden;rotatable=0;points=[[0,0.5],[1,0.5]];portConstraint=eastwest;" parent="21ea969265ad0168-14" vertex="1">
          <mxGeometry y="26" width="160" height="26" as="geometry" />
        </mxCell>
        <mxCell id="21ea969265ad0168-16" value="operated in normal mode, controls fast shutter and triggers second DDG" style="text;html=1;strokeColor=none;fillColor=none;spacingLeft=4;spacingRight=4;whiteSpace=wrap;overflow=hidden;rotatable=0;points=[[0,0.5],[1,0.5]];portConstraint=eastwest;" parent="21ea969265ad0168-14" vertex="1">
          <mxGeometry y="52" width="160" height="48" as="geometry" />
        </mxCell>
        <mxCell id="O8qpyw_Cq4v1m74naMs6-19" value="&lt;div&gt;channel AB&lt;/div&gt;" style="text;html=1;strokeColor=none;fillColor=none;spacingLeft=4;spacingRight=4;whiteSpace=wrap;overflow=hidden;rotatable=0;points=[[0,0.5],[1,0.5]];portConstraint=eastwest;" vertex="1" parent="21ea969265ad0168-14">
          <mxGeometry y="100" width="160" height="30" as="geometry" />
        </mxCell>
        <mxCell id="O8qpyw_Cq4v1m74naMs6-21" value="&lt;div&gt;channel T0&lt;br&gt;&lt;/div&gt;" style="text;html=1;strokeColor=none;fillColor=none;spacingLeft=4;spacingRight=4;whiteSpace=wrap;overflow=hidden;rotatable=0;points=[[0,0.5],[1,0.5]];portConstraint=eastwest;" vertex="1" parent="21ea969265ad0168-14">
          <mxGeometry y="130" width="160" height="30" as="geometry" />
        </mxCell>
        <mxCell id="21ea969265ad0168-22" value="Logical Card" style="swimlane;html=1;fontStyle=0;childLayout=stackLayout;horizontal=1;startSize=26;fillColor=#e0e0e0;horizontalStack=0;resizeParent=1;resizeLast=0;collapsible=1;marginBottom=0;swimlaneFillColor=#ffffff;align=center;rounded=1;shadow=0;comic=0;labelBackgroundColor=none;strokeWidth=1;fontFamily=Verdana;fontSize=12" parent="1" vertex="1">
          <mxGeometry x="710" y="250" width="160" height="104" as="geometry" />
        </mxCell>
        <mxCell id="21ea969265ad0168-24" value="&lt;div&gt;both signals low -&amp;gt; low&lt;br&gt;either on signal high -&amp;gt; high&lt;br&gt;both signals high -&amp;gt; low&lt;br&gt;&lt;br&gt;&lt;/div&gt;" style="text;html=1;strokeColor=none;fillColor=none;spacingLeft=4;spacingRight=4;whiteSpace=wrap;overflow=hidden;rotatable=0;points=[[0,0.5],[1,0.5]];portConstraint=eastwest;" parent="21ea969265ad0168-22" vertex="1">
          <mxGeometry y="26" width="160" height="54" as="geometry" />
        </mxCell>
        <mxCell id="21ea969265ad0168-26" value="MCS readout card" style="swimlane;html=1;fontStyle=0;childLayout=stackLayout;horizontal=1;startSize=26;fillColor=#e0e0e0;horizontalStack=0;resizeParent=1;resizeLast=0;collapsible=1;marginBottom=0;swimlaneFillColor=#ffffff;align=center;rounded=1;shadow=0;comic=0;labelBackgroundColor=none;strokeWidth=1;fontFamily=Verdana;fontSize=12" parent="1" vertex="1">
          <mxGeometry x="920" y="360" width="160" height="110" as="geometry" />
        </mxCell>
        <mxCell id="21ea969265ad0168-27" value="falling edge trigger&lt;br&gt;readout is triggered between to falling edges, thus logical board required" style="text;html=1;strokeColor=none;fillColor=none;spacingLeft=4;spacingRight=4;whiteSpace=wrap;overflow=hidden;rotatable=0;points=[[0,0.5],[1,0.5]];portConstraint=eastwest;" parent="21ea969265ad0168-26" vertex="1">
          <mxGeometry y="26" width="160" height="74" as="geometry" />
        </mxCell>
        <mxCell id="21ea969265ad0168-36" value="" style="edgeStyle=orthogonalEdgeStyle;html=1;labelBackgroundColor=none;startFill=0;startSize=8;endFill=1;endSize=8;fontFamily=Verdana;fontSize=12;entryX=0;entryY=0.5;entryDx=0;entryDy=0;" parent="1" source="21ea969265ad0168-6" target="21ea969265ad0168-15" edge="1">
          <mxGeometry relative="1" as="geometry" />
        </mxCell>
        <mxCell id="21ea969265ad0168-38" value="" style="edgeStyle=orthogonalEdgeStyle;html=1;labelBackgroundColor=none;startFill=0;startSize=8;endFill=1;endSize=8;fontFamily=Verdana;fontSize=12;align=center;entryX=0;entryY=0.5;entryDx=0;entryDy=0;exitX=1;exitY=0.5;exitDx=0;exitDy=0;" parent="1" source="O8qpyw_Cq4v1m74naMs6-19" target="O8qpyw_Cq4v1m74naMs6-3" edge="1">
          <mxGeometry x="-0.0026" relative="1" as="geometry">
            <mxPoint x="430" y="150" as="sourcePoint" />
            <mxPoint x="680" y="60" as="targetPoint" />
            <Array as="points">
              <mxPoint x="660" y="155" />
              <mxPoint x="660" y="43" />
            </Array>
            <mxPoint as="offset" />
          </mxGeometry>
        </mxCell>
        <mxCell id="21ea969265ad0168-42" style="edgeStyle=orthogonalEdgeStyle;html=1;exitX=1;exitY=0.5;labelBackgroundColor=none;startFill=0;startSize=8;endFill=1;endSize=8;fontFamily=Verdana;fontSize=12;exitDx=0;exitDy=0;" parent="1" source="O8qpyw_Cq4v1m74naMs6-19" edge="1">
          <mxGeometry relative="1" as="geometry">
            <Array as="points">
              <mxPoint x="660" y="155" />
              <mxPoint x="660" y="290" />
            </Array>
            <mxPoint x="710" y="290" as="targetPoint" />
          </mxGeometry>
        </mxCell>
        <mxCell id="21ea969265ad0168-43" style="edgeStyle=orthogonalEdgeStyle;html=1;labelBackgroundColor=none;startFill=0;startSize=8;endFill=1;endSize=8;fontFamily=Verdana;fontSize=12;entryX=0;entryY=0.378;entryDx=0;entryDy=0;entryPerimeter=0;" parent="1" source="21ea969265ad0168-24" edge="1" target="21ea969265ad0168-27">
          <mxGeometry relative="1" as="geometry">
            <mxPoint x="880" y="331" as="targetPoint" />
          </mxGeometry>
        </mxCell>
        <mxCell id="O8qpyw_Cq4v1m74naMs6-2" value="Fast shutter: fsh" style="swimlane;html=1;fontStyle=0;childLayout=stackLayout;horizontal=1;startSize=26;fillColor=#e0e0e0;horizontalStack=0;resizeParent=1;resizeLast=0;collapsible=1;marginBottom=0;swimlaneFillColor=#ffffff;align=center;rounded=1;shadow=0;comic=0;labelBackgroundColor=none;strokeWidth=1;fontFamily=Verdana;fontSize=12" vertex="1" parent="1">
          <mxGeometry x="750" width="160" height="104" as="geometry" />
        </mxCell>
        <mxCell id="O8qpyw_Cq4v1m74naMs6-3" value="FSH opening time, e.g. 20ms" style="text;html=1;strokeColor=none;fillColor=none;spacingLeft=4;spacingRight=4;whiteSpace=wrap;overflow=hidden;rotatable=0;points=[[0,0.5],[1,0.5]];portConstraint=eastwest;" vertex="1" parent="O8qpyw_Cq4v1m74naMs6-2">
          <mxGeometry y="26" width="160" height="34" as="geometry" />
        </mxCell>
        <mxCell id="O8qpyw_Cq4v1m74naMs6-11" value="TTL" style="text;html=1;align=center;verticalAlign=middle;resizable=0;points=[];autosize=1;strokeColor=none;fillColor=default;" vertex="1" parent="1">
          <mxGeometry x="200" y="60" width="40" height="30" as="geometry" />
        </mxCell>
        <mxCell id="O8qpyw_Cq4v1m74naMs6-16" value="DelayGenerator 4 - ddg4" style="swimlane;html=1;fontStyle=0;childLayout=stackLayout;horizontal=1;startSize=26;fillColor=#e0e0e0;horizontalStack=0;resizeParent=1;resizeLast=0;collapsible=1;marginBottom=0;swimlaneFillColor=#ffffff;align=center;rounded=1;shadow=0;comic=0;labelBackgroundColor=none;strokeWidth=1;fontFamily=Verdana;fontSize=12" vertex="1" parent="1">
          <mxGeometry x="270" y="350" width="230" height="190" as="geometry" />
        </mxCell>
        <mxCell id="O8qpyw_Cq4v1m74naMs6-17" value="ext. trigger" style="text;html=1;strokeColor=none;fillColor=none;spacingLeft=4;spacingRight=4;whiteSpace=wrap;overflow=hidden;rotatable=0;points=[[0,0.5],[1,0.5]];portConstraint=eastwest;" vertex="1" parent="O8qpyw_Cq4v1m74naMs6-16">
          <mxGeometry y="26" width="230" height="24" as="geometry" />
        </mxCell>
        <mxCell id="O8qpyw_Cq4v1m74naMs6-18" value="operated in burst mode:&lt;br&gt;burstCount: N_points&lt;br&gt;burstPeriod: (exp_time + readout time)&lt;br&gt;burstDelay: fsh opening (20ms)" style="text;html=1;strokeColor=none;fillColor=none;spacingLeft=4;spacingRight=4;whiteSpace=wrap;overflow=hidden;rotatable=0;points=[[0,0.5],[1,0.5]];portConstraint=eastwest;" vertex="1" parent="O8qpyw_Cq4v1m74naMs6-16">
          <mxGeometry y="50" width="230" height="68" as="geometry" />
        </mxCell>
        <mxCell id="O8qpyw_Cq4v1m74naMs6-29" value="Channel AB" style="text;html=1;strokeColor=none;fillColor=none;spacingLeft=4;spacingRight=4;whiteSpace=wrap;overflow=hidden;rotatable=0;points=[[0,0.5],[1,0.5]];portConstraint=eastwest;" vertex="1" parent="O8qpyw_Cq4v1m74naMs6-16">
          <mxGeometry y="118" width="230" height="24" as="geometry" />
        </mxCell>
        <mxCell id="O8qpyw_Cq4v1m74naMs6-28" value="Channel CD " style="text;html=1;strokeColor=none;fillColor=none;spacingLeft=4;spacingRight=4;whiteSpace=wrap;overflow=hidden;rotatable=0;points=[[0,0.5],[1,0.5]];portConstraint=eastwest;" vertex="1" parent="O8qpyw_Cq4v1m74naMs6-16">
          <mxGeometry y="142" width="230" height="24" as="geometry" />
        </mxCell>
        <mxCell id="O8qpyw_Cq4v1m74naMs6-30" value="Channel EF" style="text;html=1;strokeColor=none;fillColor=none;spacingLeft=4;spacingRight=4;whiteSpace=wrap;overflow=hidden;rotatable=0;points=[[0,0.5],[1,0.5]];portConstraint=eastwest;" vertex="1" parent="O8qpyw_Cq4v1m74naMs6-16">
          <mxGeometry y="166" width="230" height="24" as="geometry" />
        </mxCell>
        <mxCell id="O8qpyw_Cq4v1m74naMs6-27" value="" style="edgeStyle=orthogonalEdgeStyle;html=1;labelBackgroundColor=none;startFill=0;startSize=8;endFill=1;endSize=8;fontFamily=Verdana;fontSize=12;align=center;exitX=1;exitY=0.5;exitDx=0;exitDy=0;" edge="1" parent="1" source="O8qpyw_Cq4v1m74naMs6-21" target="O8qpyw_Cq4v1m74naMs6-17">
          <mxGeometry x="-0.0026" relative="1" as="geometry">
            <mxPoint x="220" y="262" as="sourcePoint" />
            <mxPoint x="240" y="390" as="targetPoint" />
            <Array as="points">
              <mxPoint x="510" y="185" />
              <mxPoint x="510" y="270" />
              <mxPoint x="200" y="270" />
              <mxPoint x="200" y="390" />
            </Array>
            <mxPoint as="offset" />
          </mxGeometry>
        </mxCell>
        <mxCell id="O8qpyw_Cq4v1m74naMs6-31" style="edgeStyle=orthogonalEdgeStyle;html=1;exitX=1;exitY=0.5;labelBackgroundColor=none;startFill=0;startSize=8;endFill=1;endSize=8;fontFamily=Verdana;fontSize=12;exitDx=0;exitDy=0;" edge="1" parent="1" source="O8qpyw_Cq4v1m74naMs6-28" target="O8qpyw_Cq4v1m74naMs6-36">
          <mxGeometry relative="1" as="geometry">
            <Array as="points">
              <mxPoint x="640" y="504" />
              <mxPoint x="640" y="610" />
            </Array>
            <mxPoint x="500" y="480" as="sourcePoint" />
            <mxPoint x="910" y="610" as="targetPoint" />
          </mxGeometry>
        </mxCell>
        <mxCell id="O8qpyw_Cq4v1m74naMs6-32" style="edgeStyle=orthogonalEdgeStyle;html=1;labelBackgroundColor=none;startFill=0;startSize=8;endFill=1;endSize=8;fontFamily=Verdana;fontSize=12;entryX=0;entryY=0.25;entryDx=0;entryDy=0;exitX=1;exitY=0.5;exitDx=0;exitDy=0;" edge="1" parent="1" source="O8qpyw_Cq4v1m74naMs6-28" target="O8qpyw_Cq4v1m74naMs6-34">
          <mxGeometry relative="1" as="geometry">
            <Array as="points">
              <mxPoint x="640" y="504" />
              <mxPoint x="640" y="610" />
              <mxPoint x="760" y="610" />
              <mxPoint x="760" y="528" />
            </Array>
            <mxPoint x="500" y="500" as="sourcePoint" />
            <mxPoint x="880" y="540" as="targetPoint" />
          </mxGeometry>
        </mxCell>
        <mxCell id="O8qpyw_Cq4v1m74naMs6-33" style="edgeStyle=orthogonalEdgeStyle;html=1;labelBackgroundColor=none;startFill=0;startSize=8;endFill=1;endSize=8;fontFamily=Verdana;fontSize=12;entryX=0.008;entryY=0.154;entryDx=0;entryDy=0;entryPerimeter=0;exitX=1;exitY=0.5;exitDx=0;exitDy=0;" edge="1" parent="1" source="O8qpyw_Cq4v1m74naMs6-28" target="O8qpyw_Cq4v1m74naMs6-38">
          <mxGeometry relative="1" as="geometry">
            <Array as="points">
              <mxPoint x="640" y="504" />
              <mxPoint x="640" y="610" />
              <mxPoint x="760" y="610" />
              <mxPoint x="760" y="701" />
            </Array>
            <mxPoint x="500" y="480" as="sourcePoint" />
            <mxPoint x="880" y="700" as="targetPoint" />
          </mxGeometry>
        </mxCell>
        <mxCell id="O8qpyw_Cq4v1m74naMs6-34" value="eiger" style="swimlane;html=1;fontStyle=0;childLayout=stackLayout;horizontal=1;startSize=26;fillColor=#e0e0e0;horizontalStack=0;resizeParent=1;resizeLast=0;collapsible=1;marginBottom=0;swimlaneFillColor=#ffffff;align=center;rounded=1;shadow=0;comic=0;labelBackgroundColor=none;strokeWidth=1;fontFamily=Verdana;fontSize=12" vertex="1" parent="1">
          <mxGeometry x="920" y="510" width="160" height="70" as="geometry" />
        </mxCell>
        <mxCell id="O8qpyw_Cq4v1m74naMs6-35" value="rising edge&lt;br&gt;set exp_time on device" style="text;html=1;strokeColor=none;fillColor=none;spacingLeft=4;spacingRight=4;whiteSpace=wrap;overflow=hidden;rotatable=0;points=[[0,0.5],[1,0.5]];portConstraint=eastwest;" vertex="1" parent="O8qpyw_Cq4v1m74naMs6-34">
          <mxGeometry y="26" width="160" height="44" as="geometry" />
        </mxCell>
        <mxCell id="O8qpyw_Cq4v1m74naMs6-36" value="falcon" style="swimlane;html=1;fontStyle=0;childLayout=stackLayout;horizontal=1;startSize=26;fillColor=#e0e0e0;horizontalStack=0;resizeParent=1;resizeLast=0;collapsible=1;marginBottom=0;swimlaneFillColor=#ffffff;align=center;rounded=1;shadow=0;comic=0;labelBackgroundColor=none;strokeWidth=1;fontFamily=Verdana;fontSize=12" vertex="1" parent="1">
          <mxGeometry x="920" y="600" width="160" height="70" as="geometry" />
        </mxCell>
        <mxCell id="O8qpyw_Cq4v1m74naMs6-37" value="rising edge &lt;br&gt;set exp_time on device" style="text;html=1;strokeColor=none;fillColor=none;spacingLeft=4;spacingRight=4;whiteSpace=wrap;overflow=hidden;rotatable=0;points=[[0,0.5],[1,0.5]];portConstraint=eastwest;" vertex="1" parent="O8qpyw_Cq4v1m74naMs6-36">
          <mxGeometry y="26" width="160" height="44" as="geometry" />
        </mxCell>
        <mxCell id="O8qpyw_Cq4v1m74naMs6-38" value="Pilatus 300k" style="swimlane;html=1;fontStyle=0;childLayout=stackLayout;horizontal=1;startSize=26;fillColor=#e0e0e0;horizontalStack=0;resizeParent=1;resizeLast=0;collapsible=1;marginBottom=0;swimlaneFillColor=#ffffff;align=center;rounded=1;shadow=0;comic=0;labelBackgroundColor=none;strokeWidth=1;fontFamily=Verdana;fontSize=12" vertex="1" parent="1">
          <mxGeometry x="920" y="690" width="160" height="70" as="geometry" />
        </mxCell>
        <mxCell id="O8qpyw_Cq4v1m74naMs6-39" value="rising edge &lt;br&gt;set exp_time on device" style="text;html=1;strokeColor=none;fillColor=none;spacingLeft=4;spacingRight=4;whiteSpace=wrap;overflow=hidden;rotatable=0;points=[[0,0.5],[1,0.5]];portConstraint=eastwest;" vertex="1" parent="O8qpyw_Cq4v1m74naMs6-38">
          <mxGeometry y="26" width="160" height="44" as="geometry" />
        </mxCell>
        <mxCell id="O8qpyw_Cq4v1m74naMs6-40" style="edgeStyle=orthogonalEdgeStyle;html=1;labelBackgroundColor=none;startFill=0;startSize=8;endFill=1;endSize=8;fontFamily=Verdana;fontSize=12;entryX=-0.005;entryY=1.002;entryDx=0;entryDy=0;entryPerimeter=0;exitX=1;exitY=0.5;exitDx=0;exitDy=0;" edge="1" parent="1" source="O8qpyw_Cq4v1m74naMs6-29" target="21ea969265ad0168-24">
          <mxGeometry relative="1" as="geometry">
            <Array as="points">
              <mxPoint x="560" y="480" />
              <mxPoint x="560" y="330" />
            </Array>
            <mxPoint x="510" y="520" as="sourcePoint" />
            <mxPoint x="700" y="330" as="targetPoint" />
          </mxGeometry>
        </mxCell>
        <mxCell id="O8qpyw_Cq4v1m74naMs6-41" style="edgeStyle=orthogonalEdgeStyle;html=1;labelBackgroundColor=none;startFill=0;startSize=8;endFill=1;endSize=8;fontFamily=Verdana;fontSize=12;exitX=1;exitY=0.167;exitDx=0;exitDy=0;exitPerimeter=0;" edge="1" parent="1" source="O8qpyw_Cq4v1m74naMs6-30">
          <mxGeometry relative="1" as="geometry">
            <Array as="points">
              <mxPoint x="530" y="520" />
              <mxPoint x="530" y="780" />
            </Array>
            <mxPoint x="500" y="530" as="sourcePoint" />
            <mxPoint x="610" y="780" as="targetPoint" />
          </mxGeometry>
        </mxCell>
        <mxCell id="O8qpyw_Cq4v1m74naMs6-42" value="SGalil positions encoder" style="swimlane;html=1;fontStyle=0;childLayout=stackLayout;horizontal=1;startSize=26;fillColor=#e0e0e0;horizontalStack=0;resizeParent=1;resizeLast=0;collapsible=1;marginBottom=0;swimlaneFillColor=#ffffff;align=center;rounded=1;shadow=0;comic=0;labelBackgroundColor=none;strokeWidth=1;fontFamily=Verdana;fontSize=12" vertex="1" parent="1">
          <mxGeometry x="610" y="740" width="160" height="70" as="geometry" />
        </mxCell>
        <mxCell id="O8qpyw_Cq4v1m74naMs6-43" value="triggered on falling edge" style="text;html=1;strokeColor=none;fillColor=none;spacingLeft=4;spacingRight=4;whiteSpace=wrap;overflow=hidden;rotatable=0;points=[[0,0.5],[1,0.5]];portConstraint=eastwest;" vertex="1" parent="O8qpyw_Cq4v1m74naMs6-42">
          <mxGeometry y="26" width="160" height="44" as="geometry" />
        </mxCell>
        <mxCell id="O8qpyw_Cq4v1m74naMs6-44" value="&lt;div align=&quot;justify&quot;&gt;&lt;span style=&quot;background-color: rgb(255, 255, 255);&quot;&gt;channel AB&lt;/span&gt;&lt;/div&gt;&lt;div align=&quot;justify&quot;&gt;&lt;div&gt;&lt;span style=&quot;background-color: rgb(255, 255, 255);&quot;&gt;delay:0&lt;br&gt;&lt;/span&gt;&lt;/div&gt;&lt;span style=&quot;background-color: rgb(255, 255, 255);&quot;&gt;width: fsh opening (20ms)&lt;br&gt;+ N_points * exp_time&lt;br&gt;+ (N_points-1) * readout time&lt;br&gt;&lt;/span&gt;&lt;/div&gt;" style="text;html=1;align=center;verticalAlign=middle;resizable=0;points=[];autosize=1;strokeColor=none;fillColor=default;" vertex="1" parent="1">
          <mxGeometry x="450" y="44" width="180" height="90" as="geometry" />
        </mxCell>
        <mxCell id="O8qpyw_Cq4v1m74naMs6-45" value="&lt;div align=&quot;justify&quot;&gt;&lt;span style=&quot;background-color: rgb(255, 255, 255);&quot;&gt;channel AB&lt;/span&gt;&lt;/div&gt;&lt;div align=&quot;justify&quot;&gt;&lt;div&gt;&lt;span style=&quot;background-color: rgb(255, 255, 255);&quot;&gt;delay:0&lt;br&gt;&lt;/span&gt;&lt;/div&gt;&lt;span style=&quot;background-color: rgb(255, 255, 255);&quot;&gt;width: exp_time &lt;br&gt;or less&lt;br&gt;&lt;/span&gt;&lt;/div&gt;" style="text;html=1;align=center;verticalAlign=middle;resizable=0;points=[];autosize=1;strokeColor=none;fillColor=default;" vertex="1" parent="1">
          <mxGeometry x="530" y="300" width="110" height="70" as="geometry" />
        </mxCell>
        <mxCell id="O8qpyw_Cq4v1m74naMs6-46" value="&lt;div align=&quot;justify&quot;&gt;&lt;span style=&quot;background-color: rgb(255, 255, 255);&quot;&gt;channel CD&lt;br&gt;split into 3 signals&lt;br&gt;&lt;/span&gt;&lt;/div&gt;&lt;div align=&quot;justify&quot;&gt;&lt;div&gt;&lt;span style=&quot;background-color: rgb(255, 255, 255);&quot;&gt;delay:0&lt;br&gt;&lt;/span&gt;&lt;/div&gt;&lt;span style=&quot;background-color: rgb(255, 255, 255);&quot;&gt;width: exp_time &lt;br&gt;or less&lt;br&gt;&lt;/span&gt;&lt;/div&gt;" style="text;html=1;align=center;verticalAlign=middle;resizable=0;points=[];autosize=1;strokeColor=none;fillColor=default;" vertex="1" parent="1">
          <mxGeometry x="575" y="450" width="120" height="90" as="geometry" />
        </mxCell>
        <mxCell id="O8qpyw_Cq4v1m74naMs6-47" value="&lt;div align=&quot;justify&quot;&gt;&lt;span style=&quot;background-color: rgb(255, 255, 255);&quot;&gt;channel EF&lt;br&gt;&lt;/span&gt;&lt;/div&gt;&lt;div align=&quot;justify&quot;&gt;&lt;div&gt;&lt;span style=&quot;background-color: rgb(255, 255, 255);&quot;&gt;delay:0&lt;br&gt;&lt;/span&gt;&lt;/div&gt;&lt;span style=&quot;background-color: rgb(255, 255, 255);&quot;&gt;width: exp_time/2 &lt;br&gt;&lt;/span&gt;&lt;/div&gt;" style="text;html=1;align=center;verticalAlign=middle;resizable=0;points=[];autosize=1;strokeColor=none;fillColor=default;" vertex="1" parent="1">
          <mxGeometry x="480" y="610" width="120" height="60" as="geometry" />
        </mxCell>
      </root>
    </mxGraphModel>
  </diagram>
</mxfile>
